<svg xmlns="http://www.w3.org/2000/svg" xmlns:xlink="http://www.w3.org/1999/xlink" width="20" height="20" viewBox="150 80 700 880" class="text-gray-400 group-hover:text-gray-500">
  <path fill="currentColor" fill-rule="evenodd" stroke="currentColor" stroke-width="20" d="
    M709.646851,860.683350 
    C684.220459,877.457886 657.480225,890.620178 628.907104,900.258606 
    C605.175659,908.263855 580.956787,913.965332 556.172791,917.019165 
    C536.183594,919.482239 516.023438,920.430237 495.886536,919.227173 
    C449.254578,916.441284 404.538544,905.624817 362.222076,885.700867 
    C323.297607,867.373962 288.870453,842.606384 258.751526,811.859253 
    C229.932571,782.439087 207.156036,748.853577 189.671295,711.638245 
    C180.879532,692.925415 173.588959,673.578247 168.740402,653.510193 
    C162.812881,628.976440 158.462952,604.190002 157.411301,578.779663 
    C156.519226,557.225464 157.184036,535.800598 159.934189,514.539124 
    C162.553253,494.291138 166.938080,474.274353 173.091324,454.723389 
    C181.266846,428.746979 192.387115,404.075104 206.204071,380.634796 
    C225.544601,347.823792 249.635193,318.936279 278.201691,293.729889 
    C297.500793,276.700836 318.306061,261.821472 340.827942,249.411240 
    C367.604340,234.656601 395.740723,223.272598 425.423828,215.690720 
    C449.063477,209.652496 473.079376,206.341476 497.371979,204.915253 
    C502.606171,204.607941 504.175446,202.491547 504.148071,197.506653 
    C503.997986,170.177719 504.066803,142.847488 504.106506,115.517761 
    C504.109802,113.243141 503.588348,110.849380 505.642639,107.651062 
    C554.114197,150.886185 602.393372,193.949722 651.390991,237.654129 
    C602.428650,281.297882 553.844055,324.604919 505.228119,367.939911 
    C502.817169,365.988342 503.729980,363.653900 503.724792,361.661774 
    C503.652313,333.832184 503.681091,306.002319 503.658051,278.172546 
    C503.652466,271.429352 503.342163,270.944061 496.537933,271.355194 
    C471.373260,272.875946 446.841125,277.559235 422.865570,285.544250 
    C401.741028,292.579773 381.692566,301.825500 362.730225,313.352997 
    C338.566437,328.042542 317.133270,346.058685 298.047516,367.004181 
    C277.211090,389.871033 260.741516,415.533661 247.975601,443.553833 
    C239.133835,462.960815 232.511856,483.178864 228.441360,504.206207 
    C221.627365,539.405823 221.248230,574.748535 226.573608,610.071594 
    C229.573471,629.969604 234.985596,649.384399 242.598648,668.092224 
    C255.244705,699.167664 272.007019,727.750427 294.167755,753.061768 
    C319.111542,781.551819 348.395996,804.369507 382.099915,821.735901 
    C413.416321,837.872070 446.542206,847.545105 481.423706,851.588562 
    C515.157532,855.498962 548.583862,853.238892 581.531738,845.436157 
    C621.259094,836.028015 657.330994,818.604492 689.807556,793.834900 
    C718.019165,772.318298 741.720642,746.594482 760.383728,716.435974 
    C775.589111,691.864990 787.355164,665.752502 794.896118,637.686401 
    C801.121155,614.517761 803.862610,590.985840 804.774170,567.159973 
    C804.944092,562.719177 806.474548,561.521912 810.717346,561.551147 
    C829.212097,561.678711 847.709167,561.558228 866.204468,561.405212 
    C869.209778,561.380371 870.364563,562.398438 870.350281,565.434692 
    C870.264282,583.760498 868.925964,601.944397 865.821594,620.046448 
    C862.496521,639.435364 857.947327,658.454529 851.767578,677.137329 
    C844.681641,698.559570 835.130371,718.838745 824.163147,738.474426 
    C810.139221,763.582397 793.003296,786.451355 773.259399,807.328308 
    C754.212219,827.468689 733.271057,845.408508 709.646851,860.683350 
    M627.053345,666.031006 
    C629.900879,673.557312 632.496216,680.765259 635.381348,687.855225 
    C636.897827,691.581665 636.000122,694.261353 632.928772,696.558411 
    C625.459961,702.144409 617.983643,707.721558 610.584412,713.398682 
    C607.562744,715.717163 604.895935,715.466919 602.031250,713.136353 
    C594.536682,707.039246 586.889221,701.128235 579.456970,694.957214 
    C576.000488,692.087402 572.653625,691.544006 568.409424,693.179688 
    C549.829041,700.340820 554.671997,696.727783 550.367615,714.267334 
    C548.783020,720.724182 547.594055,727.280029 546.302917,733.806213 
    C545.609009,737.313477 543.755066,739.353149 540.086731,739.948853 
    C530.328125,741.533569 520.495605,741.399536 510.668823,741.482361 
    C507.266602,741.511108 506.321350,738.982605 505.447449,736.359497 
    C502.396301,727.201233 499.127655,718.109924 496.322235,708.877625 
    C494.977081,704.450806 492.348083,702.156921 487.967529,701.501770 
    C486.979492,701.354004 485.983765,701.232910 485.010345,701.015442 
    C468.560089,697.342468 473.454834,696.296204 461.175720,708.389771 
    C456.190338,713.299805 451.282928,718.292664 446.454468,723.356995 
    C443.590637,726.360718 440.770569,726.728271 437.142120,724.558228 
    C429.855011,720.199951 422.435944,716.054260 414.975159,711.997742 
    C411.156647,709.921631 409.902008,707.137024 411.030731,702.926025 
    C413.443542,693.924744 415.508057,684.827942 418.032990,675.859741 
    C419.383209,671.064087 418.233948,667.760681 415.117401,663.689087 
    C407.733582,654.042358 399.426422,650.614929 387.682770,655.118958 
    C381.683075,657.419922 375.055878,658.059082 368.744751,659.583618 
    C365.124695,660.458069 362.594086,659.388611 360.890198,656.075500 
    C356.853394,648.226196 352.882812,640.338684 348.642334,632.599915 
    C346.506653,628.702393 347.193909,625.728516 350.322266,622.851746 
    C357.680420,616.085327 364.862335,609.123596 372.326355,602.477661 
    C375.329315,599.803833 376.350281,596.965393 375.256866,593.180481 
    C374.796509,591.586792 374.252350,589.918457 374.288727,588.296265 
    C374.508667,578.485352 368.645538,574.542358 360.094635,572.173401 
    C352.743134,570.136719 345.758667,566.807861 338.516571,564.328857 
    C335.131042,563.169922 333.590820,561.278748 333.967987,557.715271 
    C334.983276,548.123047 335.872467,538.517029 336.950775,528.932129 
    C337.395294,524.981323 340.202026,523.491821 343.841248,522.877075 
    C353.679352,521.215332 363.476379,519.302856 373.329437,517.740540 
    C377.062561,517.148621 379.259552,515.312439 380.669922,511.905243 
    C387.786163,494.713531 387.828186,499.819977 377.600677,485.982910 
    C373.640076,480.624481 369.675446,475.265747 365.568298,470.020142 
    C362.894012,466.604553 362.862274,463.455536 365.606750,460.099976 
    C371.407562,453.007446 377.230347,445.928619 382.843353,438.688538 
    C385.732086,434.962433 388.943817,434.744904 392.963867,436.454041 
    C402.005432,440.298096 411.065887,444.108917 420.217377,447.680267 
    C429.117615,451.153564 440.563812,442.283844 439.766113,432.802826 
    C439.013672,423.860199 438.514008,414.895203 437.680023,405.960876 
    C437.207581,400.899719 438.812195,397.857117 443.988922,396.318878 
    C452.438721,393.808075 460.791718,390.921722 469.047455,387.825592 
    C474.179688,385.900818 477.407318,387.219452 480.350037,391.757568 
    C485.694702,399.999817 491.444885,407.983856 497.161377,415.978729 
    C501.473724,422.009888 514.452332,421.484039 518.048645,415.054260 
    C522.763428,406.624695 527.159912,398.017303 531.710571,389.495575 
    C534.901855,383.519379 536.310608,382.964661 542.890015,384.642456 
    C551.912231,386.943207 560.907959,389.384583 570.009460,391.322021 
    C574.521301,392.282471 576.025818,394.745667 576.133911,398.962341 
    C576.385620,408.782959 576.795654,418.599487 577.133118,428.417969 
    C577.429810,437.053223 587.779968,443.251129 595.359802,439.167969 
    C603.863037,434.587402 612.352417,429.959534 620.627014,424.984894 
    C625.168335,422.254730 628.408569,422.801910 631.965454,426.664337 
    C638.394775,433.645996 645.143127,440.339386 651.885437,447.024872 
    C654.951965,450.065521 655.468201,452.945282 653.101624,456.754425 
    C647.829651,465.240021 642.805115,473.881683 637.789307,482.523376 
    C634.080750,488.912720 639.235352,500.042450 646.685547,500.975555 
    C654.757263,501.986572 662.932251,502.176361 671.063110,502.709381 
    C673.554688,502.872742 676.054260,502.929718 678.541626,503.137360 
    C682.454773,503.464050 684.803650,505.197083 685.582642,509.461975 
    C687.343872,519.105164 689.478455,528.683838 691.636108,538.249207 
    C692.575623,542.414490 690.995972,544.868164 687.342773,546.646179 
    C678.808105,550.799988 670.344971,555.100952 661.858398,559.353333 
    C653.736816,563.422791 652.545776,577.880066 659.871155,583.275208 
    C667.919312,589.202759 675.901367,595.221985 684.022339,601.047852 
    C687.587708,603.605591 688.311523,606.543152 686.756104,610.567322 
    C683.456177,619.104980 680.308289,627.703918 677.251099,636.331909 
    C675.672485,640.787109 673.144165,642.482300 668.165649,641.726135 
    C658.482056,640.255310 648.691162,639.498047 638.952026,638.380859 
    C635.651245,638.002258 633.096680,639.034424 631.193298,641.781311 
    C629.011414,644.930298 626.835022,648.087341 624.529724,651.145508 
    C621.866760,654.678101 623.955200,657.763062 625.217896,660.968384 
    C625.827881,662.516846 626.356201,664.097595 627.053345,666.031006 
    M492.509705,461.034698 
    C491.359802,461.226379 490.191711,461.343719 489.062653,461.620392 
    C436.094727,474.599335 402.415497,525.604858 411.153046,579.382751 
    C420.692627,638.096741 477.049194,676.180969 534.384399,664.349365 
    C589.205444,653.036621 625.482361,598.891846 615.419495,544.032227 
    C604.958679,487.002960 550.013855,449.589813 492.509705,461.034698 
    z
  " />
</svg>