<svg version="1.1" id="Layer_1" xmlns="http://www.w3.org/2000/svg" x="0px" y="0px"
	 width="100%" viewBox="0 0 406 303">
<path fill-rule="evenodd" clip-rule="evenodd" fill="#fff"
	d="
M106.441910,267.628601 
	C85.956718,261.165070 68.612038,250.091629 53.910301,235.265747 
	C40.939026,222.184921 30.958794,206.797531 23.348660,189.939621 
	C21.906691,186.745392 22.962772,184.923401 25.872561,183.587433 
	C41.586090,176.372910 57.678200,170.693405 75.312332,170.980469 
	C79.139854,171.042786 82.984734,171.003387 86.797714,170.705200 
	C90.172050,170.441315 91.675858,168.775833 91.038132,164.975922 
	C89.003242,152.851044 85.937981,140.686783 85.809761,128.510971 
	C85.667320,114.985069 88.218964,101.418388 89.810410,87.894493 
	C90.266090,84.022293 93.261543,84.017937 96.330544,84.694054 
	C116.446121,89.125618 135.070602,96.866531 151.281662,109.787926 
	C158.777817,115.762909 159.919281,115.712982 162.192841,106.553589 
	C167.261398,86.134026 177.346222,68.190269 189.302902,51.241367 
	C193.583542,45.173458 199.128265,39.985027 204.208221,34.499084 
	C206.355698,32.180000 208.832382,31.990833 211.184601,34.380043 
	C226.997070,50.441353 239.977921,68.443565 248.016357,89.632164 
	C250.715744,96.747528 252.405121,104.248123 254.512756,111.585106 
	C255.602097,115.377304 257.154053,115.982605 260.073425,113.338036 
	C273.148407,101.493828 288.638733,93.936806 305.033173,88.057487 
	C309.554871,86.435951 314.403534,85.748657 319.000214,84.307510 
	C323.462463,82.908501 325.813477,84.759697 326.658173,88.854774 
	C327.868805,94.723869 329.554626,100.638771 329.676727,106.562157 
	C330.073608,125.820213 331.873657,145.242752 324.654175,163.901001 
	C322.486115,169.504227 324.095459,170.956985 330.108276,170.665070 
	C351.209991,169.640671 370.984985,174.805161 389.871063,183.884293 
	C392.366608,185.083984 393.902954,186.480911 392.361115,189.718338 
	C381.708649,212.086197 367.727295,231.879715 348.128448,247.347992 
	C325.047302,265.564606 298.962402,273.381104 269.470886,271.500366 
	C249.847656,270.248962 231.463058,265.477478 213.853378,257.115021 
	C210.070175,255.318451 206.704010,254.829041 202.547028,256.843842 
	C184.502075,265.589813 165.298843,270.416840 145.325867,271.614716 
	C132.356628,272.392517 119.354607,271.942841 106.441910,267.628601 
M178.113342,114.782021 
	C176.546814,133.733215 175.709076,152.574814 181.192612,171.219376 
	C186.347366,188.746048 193.623306,205.229523 203.026688,220.851730 
	C206.977783,227.415878 208.316742,227.686417 212.357529,221.162415 
	C224.727036,201.191330 234.097519,179.927444 238.226898,156.692810 
	C240.445847,144.207687 240.958282,131.476883 238.468750,118.965469 
	C234.234375,97.685318 224.459732,78.910255 211.376923,61.739288 
	C208.805435,58.364239 206.893005,58.107742 204.008270,61.584305 
	C191.217163,76.999580 183.401962,94.801468 178.113342,114.782021 
M266.431702,130.941544 
	C262.972504,134.818253 257.633301,137.301010 257.154022,143.390137 
	C256.093445,156.865601 254.332214,170.214981 249.116684,182.822739 
	C244.182373,194.750732 239.182465,206.655945 233.929550,218.445602 
	C231.823456,223.172546 228.964584,227.564087 226.448349,232.108307 
	C226.757111,232.508286 227.065872,232.908264 227.374634,233.308243 
	C229.361893,232.915726 231.521255,232.896591 233.309540,232.072357 
	C249.544098,224.589798 264.950867,215.732452 278.468719,203.899155 
	C300.568573,179.065094 300.051086,176.961029 301.517822,174.197540 
	C312.165283,154.136444 314.973969,132.640076 312.092896,110.256660 
	C311.566528,106.167336 309.692505,105.405884 305.908569,106.767441 
	C291.289734,112.027695 278.399414,120.043747 266.431702,130.941544 
M113.544792,107.993362 
	C112.934555,107.727081 112.331573,107.442490 111.712967,107.197334 
	C105.079010,104.568275 104.061127,105.269798 104.039703,112.642715 
	C103.841576,146.365234 107.138229,158.831329 112.256950,170.888428 
	C135.796722,206.278458 178.147385,234.070969 188.381805,232.488953 
	C187.649551,230.773544 187.163467,229.109680 186.294769,227.678009 
	C171.592499,203.447845 161.595490,177.668701 159.765839,149.066772 
	C159.540375,145.542282 158.827835,141.383087 156.753937,138.784851 
	C152.750992,133.769897 148.118317,128.916031 142.836731,125.338951 
	C133.663223,119.125946 123.798241,113.933876 113.544792,107.993362 
M132.529846,221.982666 
	C128.698166,218.807632 124.492073,215.983231 121.117546,212.380051 
	C115.219360,206.082199 109.992813,199.157501 104.138779,192.814865 
	C102.247002,190.765228 99.335068,188.545578 96.778618,188.403442 
	C81.487579,187.553238 66.171806,187.194168 51.466496,192.863358 
	C46.224182,194.884369 45.891972,195.438232 48.995750,200.197540 
	C57.401600,213.087006 67.331543,224.493622 79.527748,234.087540 
	C106.493919,255.299942 136.420563,258.526672 168.535812,249.811859 
	C169.743988,249.484009 170.685898,248.174942 171.751907,247.323135 
	C170.783234,246.516556 169.890442,245.589996 168.834244,244.921753 
	C156.935837,237.394073 145.012344,229.906021 132.529846,221.982666 
M299.922516,206.417664 
	C284.174500,224.629196 264.022430,236.915543 241.417297,248.089890 
	C244.272186,249.433426 245.362457,250.263474 246.556351,250.458206 
	C256.082336,252.011978 265.619110,254.587234 275.169464,254.660889 
	C291.449890,254.786469 307.377777,251.435883 321.822906,243.513641 
	C340.766205,233.124481 355.282043,217.939789 366.913513,199.882965 
	C369.927979,195.203186 369.533936,194.674423 364.018219,192.863785 
	C350.200592,188.327942 335.925934,187.730576 321.590027,187.577652 
	C317.081696,187.529556 313.312012,188.712509 310.575470,193.010590 
	C307.649780,197.605698 303.863495,201.652878 299.922516,206.417664 
z"/>
</svg>