<svg xmlns="http://www.w3.org/2000/svg" width="20" height="20" 
     viewBox="0 0 980 980" 
     class="logo-icon text-gray-500 group-hover:text-gray-600">
  <path fill="currentColor" d="
    M314.657471,693.968262 
    C313.327423,681.595215 315.493103,669.651306 313.796173,657.649292 
    C309.388336,626.472656 295.244873,600.973389 270.771851,581.272766 
    C254.289734,568.004883 235.218384,560.806030 214.447586,557.237061 
    C185.828354,552.319458 163.436249,530.286011 157.751266,501.527893 
    C151.788589,471.365234 160.890457,446.356689 185.809692,428.175507 
    C208.853973,411.362366 225.640457,390.327667 232.899338,362.580200 
    C240.665009,332.895477 237.865067,304.147614 222.939987,276.982147 
    C216.179260,264.676849 211.242676,251.767029 211.959045,237.546753 
    C214.067841,195.686630 248.400406,165.131714 287.511200,166.830032 
    C297.240997,167.252563 306.417999,170.578903 315.867035,172.481949 
    C352.976837,179.955933 385.865387,170.837814 414.648346,146.646240 
    C429.362732,134.279037 439.641266,118.606049 446.699707,100.814110 
    C457.769318,72.911346 486.356750,57.172234 511.635406,57.417397 
    C544.770691,57.738750 567.483398,72.643631 580.391541,102.643021 
    C598.109436,143.820786 629.375427,167.420761 673.200623,174.274033 
    C689.982544,176.898346 706.659912,174.008652 723.069641,169.489975 
    C772.607727,155.848923 816.288147,196.447922 814.192566,243.016144 
    C813.664917,254.741928 809.865967,265.525757 804.208923,275.687622 
    C793.673218,294.613129 788.233154,314.876556 789.403015,336.515320 
    C791.313171,371.843262 805.892944,400.971558 833.832642,422.975311 
    C841.957703,429.374176 850.513977,435.218689 856.639832,443.754974 
    C888.674011,488.394165 862.667725,549.691528 808.099365,558.199829 
    C758.185791,565.982300 719.506104,606.125732 712.933960,656.633789 
    C711.740845,665.803162 711.908386,674.944641 712.278748,684.067017 
    C713.811890,721.829773 683.145569,752.145020 649.548767,756.505371 
    C626.991272,759.432983 607.788635,752.970581 591.091370,738.122681 
    C578.984253,727.356628 565.618530,718.668884 550.118225,713.835144 
    C508.173157,700.754578 470.134857,707.981201 436.816833,736.969971 
    C423.151611,748.859497 407.956207,756.656921 389.666260,757.281128 
    C351.748779,758.575378 318.498291,730.490295 314.657471,693.968262 
    M670.533630,248.972244 
    C665.555664,244.800262 660.740784,240.413635 655.574707,236.489273 
    C600.061890,194.319397 537.595398,179.790833 469.395050,192.035507 
    C418.266693,201.215057 375.121918,226.086868 340.204346,264.658173 
    C304.916382,303.638580 284.943176,349.601776 280.526825,401.891388 
    C277.782318,434.386261 281.635834,466.349945 292.542694,497.345062 
    C307.656219,540.294922 332.901428,576.025208 368.599274,604.157654 
    C407.236664,634.606567 451.083374,651.537964 500.465576,654.124451 
    C528.745605,655.605652 556.312012,652.359497 583.215332,643.831116 
    C625.198364,630.522461 660.683716,607.159790 689.517151,573.825500 
    C727.611023,529.785156 746.274109,478.346527 746.554688,420.383362 
    C746.672607,396.009216 742.931702,371.986450 735.160522,348.689575 
    C722.284668,310.089722 700.897827,277.058838 670.533630,248.972244 
    z
    
    M783.466553,905.687744 
    C773.491455,905.269043 764.643555,901.628845 755.494019,899.270447 
    C743.447876,896.165527 731.722900,891.521545 718.956055,891.955078 
    C698.608826,892.645996 683.125122,901.820190 673.347595,919.489868 
    C666.020874,932.730591 659.864258,946.621216 653.257263,960.256592 
    C650.718445,965.496277 647.576904,969.478821 640.931091,969.407898 
    C634.243347,969.336487 631.268738,965.170105 628.884766,959.895325 
    C598.784729,893.297668 568.659424,826.711426 538.598572,760.096130 
    C537.690796,758.084534 535.996582,756.159424 536.759705,753.603088 
    C538.744507,752.353271 540.346619,753.692200 541.970337,754.272522 
    C552.521484,758.043640 561.201599,764.709900 569.545105,771.974365 
    C590.925781,790.589966 616.072937,800.129700 644.199158,799.388855 
    C676.834229,798.529358 704.982117,786.049438 727.607361,762.027466 
    C728.955200,760.596436 730.053406,758.832397 732.421753,758.106628 
    C735.782593,760.514648 736.520752,764.656189 738.098816,768.133545 
    C756.192871,808.005005 774.167053,847.930969 792.116150,887.867981 
    C795.901428,896.290222 792.718933,902.926819 783.466553,905.687744 
    z
    
    M379.418915,968.084473 
    C375.267487,965.557068 373.789978,961.574402 371.971008,957.844849 
    C365.984222,945.569946 360.360413,933.103516 353.968750,921.043640 
    C341.403473,897.335327 316.472931,886.873108 290.437378,893.930847 
    C276.941772,897.589233 263.494781,901.430481 249.970093,904.976562 
    C241.308029,907.247742 235.057022,903.871338 233.080841,896.403076 
    C232.152924,892.896362 233.360321,889.811951 234.729126,886.768066 
    C244.223679,865.654907 253.750336,844.556213 263.282196,823.459900 
    C272.403473,803.272217 281.538544,783.090698 290.683716,762.913879 
    C291.484161,761.147827 291.846680,759.036072 294.052521,758.168213 
    C296.363586,758.709045 297.445068,760.746277 298.882599,762.268555 
    C317.776489,782.276123 341.042450,794.446960 368.029724,798.345459 
    C401.896423,803.237793 431.951874,793.397095 457.908325,771.255493 
    C465.823761,764.503418 473.961487,758.251465 483.744598,754.478088 
    C485.523438,753.791992 487.296570,752.548584 489.446869,753.414307 
    C490.596832,755.426025 489.187256,756.944641 488.477509,758.517395 
    C458.334534,825.309814 428.161987,892.088928 398.011688,958.877991 
    C393.607697,968.633728 388.591858,971.261902 379.418915,968.084473 
    z
    
    M543.058228,451.528473 
    C555.697510,442.277985 568.355286,433.052704 580.970154,423.769135 
    C591.167603,416.264648 601.558594,408.994263 611.408752,401.055511 
    C620.206909,393.964569 621.429810,381.473969 614.983582,372.736115 
    C607.814026,363.017792 594.921021,361.230255 584.363586,368.890198 
    C552.539795,391.979980 520.780701,415.159729 489.118042,438.469635 
    C485.398376,441.208038 483.460571,441.035675 480.889221,437.114502 
    C474.952820,428.061829 468.636566,419.254395 462.349731,410.436371 
    C454.522278,399.457306 441.738586,396.979797 431.298248,404.283173 
    C421.864288,410.882477 420.079041,423.698578 427.457184,434.416901 
    C438.888519,451.023285 450.554871,467.467896 462.111420,483.988159 
    C464.913147,487.993317 468.826416,490.366486 473.394379,491.808807 
    C481.344543,494.319031 488.075439,491.636047 494.416260,486.994781 
    C510.416016,475.283630 526.454895,463.626038 543.058228,451.528473 
    Z
  "/>
  
  <path fill="none" stroke="currentColor" stroke-width="25" d="
    M575.728394,601.848267 
    C501.678772,624.739441 435.986420,610.545898 379.711731,557.788818 
    C348.314148,528.353821 330.041565,491.139252 323.945221,448.547913 
    C312.205902,366.532837 354.105560,286.690979 427.873871,250.108078 
    C466.068024,231.166977 506.289459,225.737671 548.406372,233.347855 
    C624.516663,247.100311 686.384460,307.606659 700.530640,383.924194 
    C713.773560,455.368439 692.457581,516.162170 638.695190,565.208008 
    C620.505981,581.801514 599.386658,593.697937 575.728394,601.848267 
    M543.058228,451.528473 
    C555.697510,442.277985 568.355286,433.052704 580.970154,423.769135 
    C591.167603,416.264648 601.558594,408.994263 611.408752,401.055511 
    C620.206909,393.964569 621.429810,381.473969 614.983582,372.736115 
    C607.814026,363.017792 594.921021,361.230255 584.363586,368.890198 
    C552.539795,391.979980 520.780701,415.159729 489.118042,438.469635 
    C485.398376,441.208038 483.460571,441.035675 480.889221,437.114502 
    C474.952820,428.061829 468.636566,419.254395 462.349731,410.436371 
    C454.522278,399.457306 441.738586,396.979797 431.298248,404.283173 
    C421.864288,410.882477 420.079041,423.698578 427.457184,434.416901 
    C438.888519,451.023285 450.554871,467.467896 462.111420,483.988159 
    C464.913147,487.993317 468.826416,490.366486 473.394379,491.808807 
    C481.344543,494.319031 488.075439,491.636047 494.416260,486.994781 
    C510.416016,475.283630 526.454895,463.626038 543.058228,451.528473 
    z
  "/>
</svg>